# xmcd
#
# Track frame offsets: 
#        150
#        12744
#        25110
#        36813
#        71776
#        82396
#        94619
#        104785
#        118014
#        124314
#        133034
#        138965
#        151326
#        162898
#
# Disc length: 2346 seconds
#
# Revision: 1
# Processed by: cddbd v1.5.2PL0 Copyright (c) Steve Scherf et al.
# Submitted via: ExactAudioCopy v0.99pb4
#
DISCID=c809280e
DTITLE=Mack Vickery - Live At The Alabama Women's Prison
DYEAR=2008
DGENRE=Rockabilly
TTITLE0=Life Turned Her That Way
TTITLE1=A Woman Who Walks On The Wild Side
TTITLE2=Walk A Mile In My Shoes
TTITLE3=Down At John Wayne's Ranch-Medley (Cryin' Time, Still, Life Tu
TTITLE3=rned her That Way, Love Me, Hound Dog)
TTITLE4=Alabama Women's Prison Blues
TTITLE5=The Purse
TTITLE6=Games People Play
TTITLE7=As Usual
TTITLE8=Jesus, Don't Give Up On Me
TTITLE9=He Got The Whole World
TTITLE10=Old Time Religion
TTITLE11=Meat Man
TTITLE12=The Farther I Let Her Go
TTITLE13=Hidden Track
EXTD=
EXTT0=
EXTT1=
EXTT2=
EXTT3=
EXTT4=
EXTT5=
EXTT6=
EXTT7=
EXTT8=
EXTT9=
EXTT10=
EXTT11=
EXTT12=
EXTT13=
PLAYORDER=
